<svg width="1598" height="815" viewBox="0 0 1598 815" fill="none" xmlns="http://www.w3.org/2000/svg">
<path d="M-2 544H1598V604L-2 815V544Z" fill="#EF2A82"/>
<path d="M-2 0H1598V587L-2 798V0Z" fill="#172755"/>
<mask id="mask0" mask-type="alpha" maskUnits="userSpaceOnUse" x="-2" y="-1" width="1600" height="799">
<path d="M-2 -0.00012207H1598V587L-2 798V-0.00012207Z" fill="#172755"/>
</mask>
<g mask="url(#mask0)">
<g opacity="0.07">
<path d="M1830.47 274.985C1700.93 85.9868 1483.44 -38 1237 -38C839.907 -38 518 283.907 518 681C518 738.771 524.814 794.95 537.681 848.779L903.824 482.636C938.922 447.538 995.828 447.538 1030.93 482.636L1326.88 778.585L1830.47 274.985Z" fill="#8794BA"/>
<path d="M1915.93 443.734L1390.43 969.239C1355.33 1004.34 1298.42 1004.34 1263.32 969.239L967.375 673.29L609.104 1031.56C732.1 1251.39 967.195 1400 1237 1400C1634.09 1400 1956 1078.09 1956 681C1956 597.861 1941.89 518.017 1915.93 443.734Z" fill="#8794BA"/>
</g>
</g>
<g opacity="0.07">
<path d="M500.387 -117.35C440.929 -204.094 341.11 -261.001 228 -261.001C45.746 -261.001 -102 -113.255 -102 68.9993C-102 95.5144 -98.8727 121.299 -92.9671 146.005L75.0818 -22.0439C91.191 -38.1531 117.309 -38.1531 133.418 -22.0439L269.25 113.788L500.387 -117.35Z" fill="#8794BA"/>
<path d="M539.609 -39.8988L298.418 201.292C282.309 217.402 256.191 217.402 240.082 201.292L104.25 65.4606L-60.186 229.897C-3.73432 330.792 104.168 398.999 228 398.999C410.254 398.999 558 251.253 558 68.9993C558 30.8407 551.523 -5.80507 539.609 -39.8988Z" fill="#8794BA"/>
</g>
</svg>
