<svg width="465" height="311" viewBox="0 0 465 311" fill="none" xmlns="http://www.w3.org/2000/svg">
<path d="M157.371 24.134L156.871 23.8453L156.371 24.134L46.3854 87.634L45.8854 87.9226V88.5V215.5V216.077L46.3854 216.366L156.371 279.866L156.871 280.155L157.371 279.866L267.356 216.366L267.856 216.077V215.5V88.5V87.9226L267.356 87.634L157.371 24.134Z" stroke="#EEEEF7" stroke-width="2"/>
<path d="M157.371 68.134L156.871 67.8453L156.371 68.134L84.4905 109.634L83.9905 109.923V110.5V193.5V194.077L84.4905 194.366L156.371 235.866L156.871 236.155L157.371 235.866L229.251 194.366L229.751 194.077V193.5V110.5V109.923L229.251 109.634L157.371 68.134Z" stroke="#EEEEF7" stroke-width="2"/>
<path d="M157.602 67.1385L156.507 66.7084L155.599 67.4561L96.0992 116.456L95.4574 116.985L95.3794 117.812L88.8794 186.812L88.7937 187.722L89.4253 188.382L155.425 257.382L156.525 258.532L157.893 257.719L247.893 204.219L248.94 203.597L248.867 202.381L242.867 101.881L242.791 100.606L241.602 100.138L157.602 67.1385Z" stroke="#0088F0" stroke-width="4"/>
<path d="M158.531 54.8851L157.509 53.3627L155.904 54.2493L69.9036 101.749L68.3492 102.608L69.0177 104.253L101.324 183.753L101.694 184.662L102.639 184.926L156.332 199.926L156.596 200H156.871H235.371H238.429L237.203 197.198L205.703 125.198L205.631 125.034L205.531 124.885L158.531 54.8851Z" stroke="#EF2A82" stroke-width="4"/>
<path d="M157.371 122.134L156.871 121.845L156.371 122.134L131.256 136.634L130.756 136.923V137.5V166.5V167.077L131.256 167.366L156.371 181.866L156.871 182.155L157.371 181.866L182.485 167.366L182.985 167.077V166.5V137.5V136.923L182.485 136.634L157.371 122.134Z" stroke="#EEEEF7" stroke-width="2"/>
<path d="M146.507 13H145.417V5.77539L143.232 6.57812V5.59375L146.337 4.42773H146.507V13ZM154.857 6.69531C154.857 7.12109 154.744 7.5 154.517 7.83203C154.294 8.16406 153.992 8.42383 153.609 8.61133C154.054 8.80273 154.406 9.08203 154.664 9.44922C154.925 9.81641 155.056 10.2324 155.056 10.6973C155.056 11.4355 154.806 12.0234 154.306 12.4609C153.81 12.8984 153.156 13.1172 152.343 13.1172C151.523 13.1172 150.865 12.8984 150.369 12.4609C149.876 12.0195 149.63 11.4316 149.63 10.6973C149.63 10.2363 149.755 9.82031 150.005 9.44922C150.259 9.07812 150.609 8.79688 151.054 8.60547C150.675 8.41797 150.376 8.1582 150.158 7.82617C149.939 7.49414 149.83 7.11719 149.83 6.69531C149.83 5.97656 150.06 5.40625 150.521 4.98438C150.982 4.5625 151.589 4.35156 152.343 4.35156C153.093 4.35156 153.699 4.5625 154.16 4.98438C154.625 5.40625 154.857 5.97656 154.857 6.69531ZM153.972 10.6738C153.972 10.1973 153.82 9.80859 153.515 9.50781C153.214 9.20703 152.82 9.05664 152.332 9.05664C151.843 9.05664 151.451 9.20508 151.154 9.50195C150.861 9.79883 150.714 10.1895 150.714 10.6738C150.714 11.1582 150.857 11.5391 151.142 11.8164C151.431 12.0938 151.832 12.2324 152.343 12.2324C152.851 12.2324 153.25 12.0938 153.539 11.8164C153.828 11.5352 153.972 11.1543 153.972 10.6738ZM152.343 5.24219C151.917 5.24219 151.572 5.375 151.306 5.64062C151.044 5.90234 150.914 6.25977 150.914 6.71289C150.914 7.14648 151.042 7.49805 151.3 7.76758C151.562 8.0332 151.91 8.16602 152.343 8.16602C152.777 8.16602 153.123 8.0332 153.38 7.76758C153.642 7.49805 153.773 7.14648 153.773 6.71289C153.773 6.2793 153.638 5.92578 153.369 5.65234C153.099 5.37891 152.757 5.24219 152.343 5.24219ZM158.789 9.81836H155.929V8.93359H158.789V9.81836ZM165.328 13H159.738V12.2207L162.691 8.93945C163.128 8.44336 163.429 8.04102 163.593 7.73242C163.761 7.41992 163.845 7.09766 163.845 6.76562C163.845 6.32031 163.71 5.95508 163.441 5.66992C163.171 5.38477 162.812 5.24219 162.363 5.24219C161.824 5.24219 161.404 5.39648 161.103 5.70508C160.806 6.00977 160.658 6.43555 160.658 6.98242H159.574C159.574 6.19727 159.826 5.5625 160.33 5.07812C160.837 4.59375 161.515 4.35156 162.363 4.35156C163.156 4.35156 163.783 4.56055 164.244 4.97852C164.705 5.39258 164.935 5.94531 164.935 6.63672C164.935 7.47656 164.4 8.47656 163.33 9.63672L161.044 12.1152H165.328V13ZM171.052 10.1348H172.236V11.0195H171.052V13H169.962V11.0195H166.078V10.3809L169.898 4.46875H171.052V10.1348ZM167.308 10.1348H169.962V5.95117L169.833 6.18555L167.308 10.1348Z" fill="#8794BA"/>
<path d="M289.535 91H283.945V90.2207L286.898 86.9395C287.335 86.4434 287.636 86.041 287.8 85.7324C287.968 85.4199 288.052 85.0977 288.052 84.7656C288.052 84.3203 287.917 83.9551 287.648 83.6699C287.378 83.3848 287.019 83.2422 286.57 83.2422C286.031 83.2422 285.611 83.3965 285.31 83.7051C285.013 84.0098 284.865 84.4355 284.865 84.9824H283.781C283.781 84.1973 284.033 83.5625 284.537 83.0781C285.044 82.5938 285.722 82.3516 286.57 82.3516C287.363 82.3516 287.99 82.5605 288.451 82.9785C288.912 83.3926 289.142 83.9453 289.142 84.6367C289.142 85.4766 288.607 86.4766 287.537 87.6367L285.251 90.1152H289.535V91ZM291.181 86.7227L291.615 82.4688H295.986V83.4707H292.535L292.277 85.7969C292.695 85.5508 293.169 85.4277 293.701 85.4277C294.478 85.4277 295.095 85.6855 295.552 86.2012C296.009 86.7129 296.238 87.4062 296.238 88.2812C296.238 89.1602 296 89.8535 295.523 90.3613C295.05 90.8652 294.388 91.1172 293.537 91.1172C292.783 91.1172 292.167 90.9082 291.691 90.4902C291.214 90.0723 290.943 89.4941 290.876 88.7559H291.902C291.968 89.2441 292.142 89.6133 292.423 89.8633C292.705 90.1094 293.076 90.2324 293.537 90.2324C294.041 90.2324 294.435 90.0605 294.72 89.7168C295.009 89.373 295.154 88.8984 295.154 88.293C295.154 87.7227 294.998 87.2656 294.685 86.9219C294.376 86.5742 293.964 86.4004 293.449 86.4004C292.976 86.4004 292.605 86.5039 292.335 86.7109L292.048 86.9453L291.181 86.7227ZM299.789 87.8184H296.929V86.9336H299.789V87.8184ZM302.314 86.207H303.128C303.64 86.1992 304.042 86.0645 304.335 85.8027C304.628 85.541 304.775 85.1875 304.775 84.7422C304.775 83.7422 304.277 83.2422 303.281 83.2422C302.812 83.2422 302.437 83.377 302.156 83.6465C301.878 83.9121 301.74 84.2656 301.74 84.707H300.656C300.656 84.0312 300.902 83.4707 301.394 83.0254C301.89 82.5762 302.519 82.3516 303.281 82.3516C304.085 82.3516 304.716 82.5645 305.173 82.9902C305.63 83.416 305.859 84.0078 305.859 84.7656C305.859 85.1367 305.738 85.4961 305.496 85.8438C305.257 86.1914 304.931 86.4512 304.517 86.623C304.986 86.7715 305.347 87.0176 305.601 87.3613C305.859 87.7051 305.988 88.125 305.988 88.6211C305.988 89.3867 305.738 89.9941 305.238 90.4434C304.738 90.8926 304.087 91.1172 303.287 91.1172C302.486 91.1172 301.833 90.9004 301.33 90.4668C300.83 90.0332 300.58 89.4609 300.58 88.75H301.669C301.669 89.1992 301.816 89.5586 302.109 89.8281C302.402 90.0977 302.794 90.2324 303.287 90.2324C303.81 90.2324 304.21 90.0957 304.488 89.8223C304.765 89.5488 304.904 89.1562 304.904 88.6445C304.904 88.1484 304.751 87.7676 304.447 87.502C304.142 87.2363 303.703 87.0996 303.128 87.0918H302.314V86.207ZM312.052 88.1348H313.236V89.0195H312.052V91H310.962V89.0195H307.078V88.3809L310.898 82.4688H312.052V88.1348ZM308.308 88.1348H310.962V83.9512L310.833 84.1855L308.308 88.1348Z" fill="#8794BA"/>
<path d="M285.521 217.207H286.335C286.847 217.199 287.25 217.064 287.542 216.803C287.835 216.541 287.982 216.188 287.982 215.742C287.982 214.742 287.484 214.242 286.488 214.242C286.019 214.242 285.644 214.377 285.363 214.646C285.085 214.912 284.947 215.266 284.947 215.707H283.863C283.863 215.031 284.109 214.471 284.601 214.025C285.097 213.576 285.726 213.352 286.488 213.352C287.292 213.352 287.923 213.564 288.38 213.99C288.837 214.416 289.066 215.008 289.066 215.766C289.066 216.137 288.945 216.496 288.703 216.844C288.464 217.191 288.138 217.451 287.724 217.623C288.193 217.771 288.554 218.018 288.808 218.361C289.066 218.705 289.195 219.125 289.195 219.621C289.195 220.387 288.945 220.994 288.445 221.443C287.945 221.893 287.294 222.117 286.494 222.117C285.693 222.117 285.041 221.9 284.537 221.467C284.037 221.033 283.787 220.461 283.787 219.75H284.876C284.876 220.199 285.023 220.559 285.316 220.828C285.609 221.098 286.001 221.232 286.494 221.232C287.017 221.232 287.417 221.096 287.695 220.822C287.972 220.549 288.111 220.156 288.111 219.645C288.111 219.148 287.958 218.768 287.654 218.502C287.349 218.236 286.91 218.1 286.335 218.092H285.521V217.207ZM291.181 217.723L291.615 213.469H295.986V214.471H292.535L292.277 216.797C292.695 216.551 293.169 216.428 293.701 216.428C294.478 216.428 295.095 216.686 295.552 217.201C296.009 217.713 296.238 218.406 296.238 219.281C296.238 220.16 296 220.854 295.523 221.361C295.05 221.865 294.388 222.117 293.537 222.117C292.783 222.117 292.167 221.908 291.691 221.49C291.214 221.072 290.943 220.494 290.876 219.756H291.902C291.968 220.244 292.142 220.613 292.423 220.863C292.705 221.109 293.076 221.232 293.537 221.232C294.041 221.232 294.435 221.061 294.72 220.717C295.009 220.373 295.154 219.898 295.154 219.293C295.154 218.723 294.998 218.266 294.685 217.922C294.376 217.574 293.964 217.4 293.449 217.4C292.976 217.4 292.605 217.504 292.335 217.711L292.048 217.945L291.181 217.723ZM299.789 218.818H296.929V217.934H299.789V218.818ZM305.314 219.135H306.498V220.02H305.314V222H304.224V220.02H300.339V219.381L304.16 213.469H305.314V219.135ZM301.57 219.135H304.224V214.951L304.095 215.186L301.57 219.135ZM312.052 219.135H313.236V220.02H312.052V222H310.962V220.02H307.078V219.381L310.898 213.469H312.052V219.135ZM308.308 219.135H310.962V214.951L310.833 215.186L308.308 219.135Z" fill="#8794BA"/>
<path d="M147.521 304.135H148.705V305.02H147.521V307H146.431V305.02H142.546V304.381L146.367 298.469H147.521V304.135ZM143.777 304.135H146.431V299.951L146.302 300.186L143.777 304.135ZM150.181 302.723L150.615 298.469H154.986V299.471H151.535L151.277 301.797C151.695 301.551 152.169 301.428 152.701 301.428C153.478 301.428 154.095 301.686 154.552 302.201C155.009 302.713 155.238 303.406 155.238 304.281C155.238 305.16 155 305.854 154.523 306.361C154.05 306.865 153.388 307.117 152.537 307.117C151.783 307.117 151.167 306.908 150.691 306.49C150.214 306.072 149.943 305.494 149.876 304.756H150.902C150.968 305.244 151.142 305.613 151.423 305.863C151.705 306.109 152.076 306.232 152.537 306.232C153.041 306.232 153.435 306.061 153.72 305.717C154.009 305.373 154.154 304.898 154.154 304.293C154.154 303.723 153.998 303.266 153.685 302.922C153.376 302.574 152.964 302.4 152.449 302.4C151.976 302.4 151.605 302.504 151.335 302.711L151.048 302.945L150.181 302.723ZM158.789 303.818H155.929V302.934H158.789V303.818ZM160.236 302.723L160.669 298.469H165.041V299.471H161.589L161.332 301.797C161.75 301.551 162.224 301.428 162.755 301.428C163.533 301.428 164.15 301.686 164.607 302.201C165.064 302.713 165.292 303.406 165.292 304.281C165.292 305.16 165.054 305.854 164.578 306.361C164.105 306.865 163.443 307.117 162.591 307.117C161.837 307.117 161.222 306.908 160.746 306.49C160.269 306.072 159.998 305.494 159.931 304.756H160.957C161.023 305.244 161.197 305.613 161.478 305.863C161.759 306.109 162.13 306.232 162.591 306.232C163.095 306.232 163.49 306.061 163.775 305.717C164.064 305.373 164.208 304.898 164.208 304.293C164.208 303.723 164.052 303.266 163.74 302.922C163.431 302.574 163.019 302.4 162.503 302.4C162.031 302.4 161.66 302.504 161.39 302.711L161.103 302.945L160.236 302.723ZM171.052 304.135H172.236V305.02H171.052V307H169.962V305.02H166.078V304.381L169.898 298.469H171.052V304.135ZM167.308 304.135H169.962V299.951L169.833 300.186L167.308 304.135Z" fill="#8794BA"/>
<path d="M2.44287 217.723L2.87646 213.469H7.24756V214.471H3.79639L3.53857 216.797C3.95654 216.551 4.43115 216.428 4.9624 216.428C5.73975 216.428 6.35693 216.686 6.81396 217.201C7.271 217.713 7.49951 218.406 7.49951 219.281C7.49951 220.16 7.26123 220.854 6.78467 221.361C6.31201 221.865 5.6499 222.117 4.79834 222.117C4.04443 222.117 3.4292 221.908 2.95264 221.49C2.47607 221.072 2.20459 220.494 2.13818 219.756H3.16357C3.22998 220.244 3.40381 220.613 3.68506 220.863C3.96631 221.109 4.3374 221.232 4.79834 221.232C5.30225 221.232 5.69678 221.061 5.98193 220.717C6.271 220.373 6.41553 219.898 6.41553 219.293C6.41553 218.723 6.25928 218.266 5.94678 217.922C5.63818 217.574 5.22607 217.4 4.71045 217.4C4.23779 217.4 3.8667 217.504 3.59717 217.711L3.31006 217.945L2.44287 217.723ZM9.18115 217.723L9.61475 213.469H13.9858V214.471H10.5347L10.2769 216.797C10.6948 216.551 11.1694 216.428 11.7007 216.428C12.478 216.428 13.0952 216.686 13.5522 217.201C14.0093 217.713 14.2378 218.406 14.2378 219.281C14.2378 220.16 13.9995 220.854 13.5229 221.361C13.0503 221.865 12.3882 222.117 11.5366 222.117C10.7827 222.117 10.1675 221.908 9.69092 221.49C9.21436 221.072 8.94287 220.494 8.87646 219.756H9.90186C9.96826 220.244 10.1421 220.613 10.4233 220.863C10.7046 221.109 11.0757 221.232 11.5366 221.232C12.0405 221.232 12.4351 221.061 12.7202 220.717C13.0093 220.373 13.1538 219.898 13.1538 219.293C13.1538 218.723 12.9976 218.266 12.6851 217.922C12.3765 217.574 11.9644 217.4 11.4487 217.4C10.9761 217.4 10.605 217.504 10.3354 217.711L10.0483 217.945L9.18115 217.723ZM17.7886 218.818H14.9292V217.934H17.7886V218.818ZM22.9917 213.463V214.383H22.7925C21.9487 214.398 21.2769 214.648 20.7769 215.133C20.2769 215.617 19.9878 216.299 19.9097 217.178C20.3589 216.662 20.9722 216.404 21.7495 216.404C22.4917 216.404 23.0835 216.666 23.5249 217.189C23.9702 217.713 24.1929 218.389 24.1929 219.217C24.1929 220.096 23.9526 220.799 23.4722 221.326C22.9956 221.854 22.355 222.117 21.5503 222.117C20.7339 222.117 20.0718 221.805 19.564 221.18C19.0562 220.551 18.8022 219.742 18.8022 218.754V218.338C18.8022 216.768 19.1362 215.568 19.8042 214.74C20.4761 213.908 21.4741 213.482 22.7983 213.463H22.9917ZM21.5679 217.307C21.1968 217.307 20.855 217.418 20.5425 217.641C20.23 217.863 20.0132 218.143 19.8921 218.479V218.877C19.8921 219.58 20.0503 220.146 20.3667 220.576C20.6831 221.006 21.0776 221.221 21.5503 221.221C22.0386 221.221 22.4214 221.041 22.6987 220.682C22.98 220.322 23.1206 219.852 23.1206 219.27C23.1206 218.684 22.978 218.211 22.6929 217.852C22.4116 217.488 22.0366 217.307 21.5679 217.307ZM30.0522 219.135H31.2358V220.02H30.0522V222H28.9624V220.02H25.0776V219.381L28.8979 213.469H30.0522V219.135ZM26.3081 219.135H28.9624V214.951L28.8335 215.186L26.3081 219.135Z" fill="#8794BA"/>
<path d="M11.1909 82.4629V83.3828H10.9917C10.1479 83.3984 9.47607 83.6484 8.97607 84.1328C8.47607 84.6172 8.18701 85.2988 8.10889 86.1777C8.55811 85.6621 9.17139 85.4043 9.94873 85.4043C10.6909 85.4043 11.2827 85.666 11.7241 86.1895C12.1694 86.7129 12.3921 87.3887 12.3921 88.2168C12.3921 89.0957 12.1519 89.7988 11.6714 90.3262C11.1948 90.8535 10.5542 91.1172 9.74951 91.1172C8.93311 91.1172 8.271 90.8047 7.76318 90.1797C7.25537 89.5508 7.00146 88.7422 7.00146 87.7539V87.3379C7.00146 85.7676 7.33545 84.5684 8.00342 83.7402C8.67529 82.9082 9.67334 82.4824 10.9976 82.4629H11.1909ZM9.76709 86.3066C9.396 86.3066 9.0542 86.418 8.7417 86.6406C8.4292 86.8633 8.2124 87.1426 8.09131 87.4785V87.877C8.09131 88.5801 8.24951 89.1465 8.56592 89.5762C8.88232 90.0059 9.27686 90.2207 9.74951 90.2207C10.2378 90.2207 10.6206 90.041 10.8979 89.6816C11.1792 89.3223 11.3198 88.8516 11.3198 88.2695C11.3198 87.6836 11.1772 87.2109 10.8921 86.8516C10.6108 86.4883 10.2358 86.3066 9.76709 86.3066ZM14.1733 86.7227L14.6069 82.4688H18.978V83.4707H15.5269L15.269 85.7969C15.687 85.5508 16.1616 85.4277 16.6929 85.4277C17.4702 85.4277 18.0874 85.6855 18.5444 86.2012C19.0015 86.7129 19.23 87.4062 19.23 88.2812C19.23 89.1602 18.9917 89.8535 18.5151 90.3613C18.0425 90.8652 17.3804 91.1172 16.5288 91.1172C15.7749 91.1172 15.1597 90.9082 14.6831 90.4902C14.2065 90.0723 13.9351 89.4941 13.8687 88.7559H14.894C14.9604 89.2441 15.1343 89.6133 15.4155 89.8633C15.6968 90.1094 16.0679 90.2324 16.5288 90.2324C17.0327 90.2324 17.4272 90.0605 17.7124 89.7168C18.0015 89.373 18.146 88.8984 18.146 88.293C18.146 87.7227 17.9897 87.2656 17.6772 86.9219C17.3687 86.5742 16.9565 86.4004 16.4409 86.4004C15.9683 86.4004 15.5972 86.5039 15.3276 86.7109L15.0405 86.9453L14.1733 86.7227ZM23.6304 86.4238H26.0093V87.4492H23.6304V90.1445H22.5405V87.4492H20.1616V86.4238H22.5405V83.9336H23.6304V86.4238Z" fill="#8794BA"/>
</svg>
